<?xml version="1.0" encoding="UTF-8" standalone="no"?>
<!-- Generator: Adobe Illustrator 19.1.0, SVG Export Plug-In . SVG Version: 6.00 Build 0)  -->

<svg
   xmlns:dc="http://purl.org/dc/elements/1.1/"
   xmlns:cc="http://creativecommons.org/ns#"
   xmlns:rdf="http://www.w3.org/1999/02/22-rdf-syntax-ns#"
   xmlns:svg="http://www.w3.org/2000/svg"
   xmlns="http://www.w3.org/2000/svg"
   xmlns:sodipodi="http://sodipodi.sourceforge.net/DTD/sodipodi-0.dtd"
   xmlns:inkscape="http://www.inkscape.org/namespaces/inkscape"
   version="1.1"
   id="Capa_1"
   x="0px"
   y="0px"
   viewBox="0 0 477.6 477.6"
   style="enable-background:new 0 0 477.6 477.6;"
   xml:space="preserve"
   sodipodi:docname="chat-1.svg"
   inkscape:version="0.92.1 r15371"><metadata
     id="metadata49"><rdf:RDF><cc:Work
         rdf:about=""><dc:format>image/svg+xml</dc:format><dc:type
           rdf:resource="http://purl.org/dc/dcmitype/StillImage" /></cc:Work></rdf:RDF></metadata><defs
     id="defs47" /><sodipodi:namedview
     pagecolor="#ffffff"
     bordercolor="#666666"
     borderopacity="1"
     objecttolerance="10"
     gridtolerance="10"
     guidetolerance="10"
     inkscape:pageopacity="0"
     inkscape:pageshadow="2"
     inkscape:window-width="1366"
     inkscape:window-height="692"
     id="namedview45"
     showgrid="false"
     inkscape:zoom="0.49413735"
     inkscape:cx="238.8"
     inkscape:cy="238.8"
     inkscape:window-x="0"
     inkscape:window-y="27"
     inkscape:window-maximized="1"
     inkscape:current-layer="Capa_1" /><g
     id="g12"><g
       id="g10"><path
         d="M407.583,70c-45.1-45.1-105-70-168.8-70s-123.7,24.9-168.8,70c-87,87-93.3,226-15.8,320.2c-10.7,21.9-23.3,36.5-37.6,43.5    c-8.7,4.3-13.6,13.7-12.2,23.3c1.5,9.7,8.9,17.2,18.6,18.7c5.3,0.8,11,1.3,16.9,1.3l0,0c29.3,0,60.1-10.1,85.8-27.8    c34.6,18.6,73.5,28.4,113.1,28.4c63.8,0,123.7-24.8,168.8-69.9s69.9-105.1,69.9-168.8S452.683,115.1,407.583,70z M388.483,388.5    c-40,40-93.2,62-149.7,62c-37.8,0-74.9-10.1-107.2-29.1c-2.1-1.2-4.5-1.9-6.8-1.9c-2.9,0-5.9,1-8.3,2.8    c-30.6,23.7-61.4,27.2-74.9,27.5c16.1-12,29.6-30.6,40.9-56.5c2.1-4.8,1.2-10.4-2.3-14.4c-74-83.6-70.1-211,8.9-290    c40-40,93.2-62,149.7-62s109.7,22,149.7,62C471.083,171.6,471.083,306,388.483,388.5z"
         id="path2" /><path
         d="M338.783,160h-200c-7.5,0-13.5,6-13.5,13.5s6,13.5,13.5,13.5h200c7.5,0,13.5-6,13.5-13.5S346.183,160,338.783,160z"
         id="path4" /><path
         d="M338.783,225.3h-200c-7.5,0-13.5,6-13.5,13.5s6,13.5,13.5,13.5h200c7.5,0,13.5-6,13.5-13.5S346.183,225.3,338.783,225.3z"
         id="path6" /><path
         d="M338.783,290.6h-200c-7.5,0-13.5,6-13.5,13.5s6,13.5,13.5,13.5h200c7.5,0,13.5-6,13.5-13.5S346.183,290.6,338.783,290.6z"
         id="path8" /></g></g><g
     id="g14" /><g
     id="g16" /><g
     id="g18" /><g
     id="g20" /><g
     id="g22" /><g
     id="g24" /><g
     id="g26" /><g
     id="g28" /><g
     id="g30" /><g
     id="g32" /><g
     id="g34" /><g
     id="g36" /><g
     id="g38" /><g
     id="g40" /><g
     id="g42" /><path
     style="fill:#ffffff;stroke-width:2.02372885"
     d="M 23.039481,474.38345 C 1.2910686,469.23585 -0.99319835,445.06869 19.15274,433.26237 29.894654,426.9672 43.987175,411.72933 50.756714,399.08983 l 4.818069,-8.99588 -7.355465,-9.63619 C 2.3306769,320.34037 -11.086389,236.94524 13.396389,164.0123 50.20919,54.348867 160.15571,-13.371358 273.61656,3.7328504 369.33379,18.162213 446.52599,88.875889 470.15507,183.77644 c 5.29139,21.25152 7.25365,65.44324 3.91869,88.25123 -15.03183,102.8033 -95.12485,184.79655 -196.58719,201.25133 -46.95316,7.61469 -102.24935,-0.28037 -141.59019,-20.21588 l -10.26909,-5.20373 -10.45223,6.43133 C 88.288732,470.83403 46.524089,479.94199 23.039481,474.38345 Z M 277.18629,447.87542 c 28.64516,-5.06461 59.70697,-18.24139 84.45405,-35.82638 C 455.76035,345.16849 479.26715,215.29182 414.64447,119.19763 395.26367,90.378293 358.9298,59.554683 327.58752,45.343419 283.76952,25.475383 231.31682,21.076622 183.5528,33.264454 160.85784,39.055471 126.04197,56.661159 106.51661,72.220113 70.461576,100.95087 46.122628,138.23655 33.292211,184.39511 c -4.996515,17.97541 -5.503443,22.96807 -5.503443,54.20252 0,31.36017 0.495441,36.19352 5.600922,54.64068 7.299404,26.37424 20.193849,52.63516 36.745418,74.83597 14.701418,19.71918 14.557294,18.64037 5.028713,37.64191 -6.994339,13.94784 -18.076483,29.04301 -27.874157,37.96784 l -7.422206,6.761 12.607323,-1.16043 c 17.82674,-1.64082 35.334271,-7.9313 54.754049,-19.67319 l 16.76815,-10.13864 21.78953,10.12558 c 43.58259,20.25283 86.47839,26.21943 131.39978,18.27707 z"
     id="path51"
     inkscape:connector-curvature="0" /><path
     style="fill:#ffffff;stroke-width:2.02372885"
     d="m 129.92339,312.46373 c -4.86224,-4.86223 -5.13718,-9.68599 -0.89711,-15.73954 l 3.15035,-4.49775 h 105.98645 c 116.2806,0 112.34675,-0.41924 112.34675,11.97328 0,12.65888 3.15959,12.31147 -111.97036,12.31147 -101.87032,0 -104.67306,-0.10444 -108.61608,-4.04746 z"
     id="path53"
     inkscape:connector-curvature="0" /><path
     style="fill:#ffffff;stroke-width:2.02372885"
     d="m 130.84327,246.78453 c -2.73204,-2.73203 -4.96734,-6.41614 -4.96734,-8.1869 0,-1.77076 2.2353,-5.45487 4.96734,-8.1869 l 4.96733,-4.96734 101.78436,0.0298 c 113.17395,0.0332 111.4601,-0.15681 112.51964,12.47271 1.19099,14.19645 4.34363,13.80593 -111.45213,13.80593 H 135.8106 Z"
     id="path55"
     inkscape:connector-curvature="0" /><path
     style="fill:#ffffff;stroke-width:2.02372885"
     d="m 134.00446,184.41938 c -2.76414,-1.4147 -5.895,-5.04398 -6.95746,-8.06507 -1.60577,-4.56598 -1.12504,-6.35159 2.84881,-10.58156 l 4.78057,-5.08868 h 103.41898 c 90.32691,0 103.98836,0.39881 107.91672,3.15035 5.20588,3.64633 5.9755,12.268 1.62627,18.21794 -2.76863,3.78759 -6.55674,3.94643 -105.73984,4.43376 -80.02986,0.39322 -103.98413,-0.0656 -107.89405,-2.06674 z"
     id="path57"
     inkscape:connector-curvature="0" /></svg>