<?xml version="1.0" encoding="UTF-8" standalone="no"?>
<!-- Generator: Adobe Illustrator 19.1.0, SVG Export Plug-In . SVG Version: 6.00 Build 0)  -->

<svg
   xmlns:dc="http://purl.org/dc/elements/1.1/"
   xmlns:cc="http://creativecommons.org/ns#"
   xmlns:rdf="http://www.w3.org/1999/02/22-rdf-syntax-ns#"
   xmlns:svg="http://www.w3.org/2000/svg"
   xmlns="http://www.w3.org/2000/svg"
   xmlns:sodipodi="http://sodipodi.sourceforge.net/DTD/sodipodi-0.dtd"
   xmlns:inkscape="http://www.inkscape.org/namespaces/inkscape"
   version="1.1"
   id="Capa_1"
   x="0px"
   y="0px"
   viewBox="0 0 486.196 486.196"
   style="enable-background:new 0 0 486.196 486.196;"
   xml:space="preserve"
   sodipodi:docname="house.svg"
   inkscape:version="0.92.1 r15371"><metadata
     id="metadata41"><rdf:RDF><cc:Work
         rdf:about=""><dc:format>image/svg+xml</dc:format><dc:type
           rdf:resource="http://purl.org/dc/dcmitype/StillImage" /></cc:Work></rdf:RDF></metadata><defs
     id="defs39" /><sodipodi:namedview
     pagecolor="#ffffff"
     bordercolor="#666666"
     borderopacity="1"
     objecttolerance="10"
     gridtolerance="10"
     guidetolerance="10"
     inkscape:pageopacity="0"
     inkscape:pageshadow="2"
     inkscape:window-width="731"
     inkscape:window-height="480"
     id="namedview37"
     showgrid="false"
     inkscape:zoom="0.48540094"
     inkscape:cx="243.09801"
     inkscape:cy="243.09801"
     inkscape:window-x="0"
     inkscape:window-y="27"
     inkscape:window-maximized="0"
     inkscape:current-layer="Capa_1" /><g
     id="g4"><path
       d="M481.708,220.456l-228.8-204.6c-0.4-0.4-0.8-0.7-1.3-1c-5-4.8-13-5-18.3-0.3l-228.8,204.6c-5.6,5-6,13.5-1.1,19.1   c2.7,3,6.4,4.5,10.1,4.5c3.2,0,6.4-1.1,9-3.4l41.2-36.9v7.2v106.8v124.6c0,18.7,15.2,34,34,34c0.3,0,0.5,0,0.8,0s0.5,0,0.8,0h70.6   c17.6,0,31.9-14.3,31.9-31.9v-121.3c0-2.7,2.2-4.9,4.9-4.9h72.9c2.7,0,4.9,2.2,4.9,4.9v121.3c0,17.6,14.3,31.9,31.9,31.9h72.2   c19,0,34-18.7,34-42.6v-111.2v-34v-83.5l41.2,36.9c2.6,2.3,5.8,3.4,9,3.4c3.7,0,7.4-1.5,10.1-4.5   C487.708,233.956,487.208,225.456,481.708,220.456z M395.508,287.156v34v111.1c0,9.7-4.8,15.6-7,15.6h-72.2c-2.7,0-4.9-2.2-4.9-4.9   v-121.1c0-17.6-14.3-31.9-31.9-31.9h-72.9c-17.6,0-31.9,14.3-31.9,31.9v121.3c0,2.7-2.2,4.9-4.9,4.9h-70.6c-0.3,0-0.5,0-0.8,0   s-0.5,0-0.8,0c-3.8,0-7-3.1-7-7v-124.7v-106.8v-31.3l151.8-135.6l153.1,136.9L395.508,287.156L395.508,287.156z"
       id="path2" /></g><g
     id="g6" /><g
     id="g8" /><g
     id="g10" /><g
     id="g12" /><g
     id="g14" /><g
     id="g16" /><g
     id="g18" /><g
     id="g20" /><g
     id="g22" /><g
     id="g24" /><g
     id="g26" /><g
     id="g28" /><g
     id="g30" /><g
     id="g32" /><g
     id="g34" /><path
     style="fill:#ffffff;stroke-width:2.06015253"
     d="m 86.93844,472.34864 c -6.648477,-2.49823 -14.648822,-9.44181 -18.057421,-15.67222 -3.2461,-5.93339 -3.668734,-17.94566 -4.604258,-130.86405 L 63.246685,201.4814 41.081824,221.25963 c -17.456315,15.57669 -23.463832,19.77822 -28.279605,19.77822 -8.2147781,0 -13.9909973,-8.23892 -10.755206,-15.3407 2.6946857,-5.9142 229.525537,-209.45052 236.451707,-212.169158 3.36093,-1.319222 6.37273,-1.104093 9.59077,0.685057 2.58018,1.434515 56.60708,49.116901 120.05978,105.960861 122.50079,109.74205 121.9927,109.20772 113.14352,118.98597 -6.59302,7.28522 -12.01036,4.8667 -35.01769,-15.63332 -12.08084,-10.7643 -22.78119,-19.57145 -23.77855,-19.57145 -1.02381,0 -1.81339,52.64116 -1.81339,120.89857 0,118.34623 -0.0906,121.08594 -4.29713,129.77523 -2.3634,4.88217 -7.23051,10.96904 -10.8158,13.52639 -6.21834,4.43549 -8.60929,4.67834 -51.89493,5.27088 -44.46838,0.60873 -45.51568,0.52631 -52.34446,-4.12031 -3.83253,-2.6078 -8.90759,-7.35707 -11.27794,-10.55393 -4.13334,-5.57459 -4.33524,-8.56572 -4.93274,-73.08058 -0.45765,-49.41393 -1.27786,-67.68435 -3.09023,-68.83649 -3.78481,-2.40602 -73.20168,-1.95888 -77.79823,0.50111 -3.81352,2.04095 -3.98487,4.99539 -3.98487,68.71045 0,65.78756 -0.0555,66.66092 -4.67641,73.57798 -8.75147,13.10016 -13.73377,14.22375 -62.27855,14.04485 -23.79476,-0.0877 -44.653804,-0.68198 -46.35343,-1.32062 z M 175.525,379.72988 c 0.97899,-64.96353 1.24072,-68.63524 5.27768,-74.03819 10.33721,-13.8351 11.46371,-14.11938 58.68915,-14.81042 39.32082,-0.57536 43.88282,-0.2733 52.33416,3.46511 5.64346,2.49637 10.88564,6.76443 13.42598,10.93109 3.94857,6.47648 4.16795,10.2254 4.17525,71.35085 0.004,40.51715 0.80098,65.99749 2.14033,68.50008 1.98992,3.71818 4.67076,3.98487 40.05616,3.98487 36.85366,0 38.014,-0.12917 41.13058,-4.57871 2.82194,-4.0289 3.20238,-20.29422 3.16819,-135.45504 L 395.88362,178.2032 319.92577,110.47673 C 278.14895,73.227177 243.27594,42.725192 242.43019,42.694543 c -0.84574,-0.03065 -35.71104,30.446262 -77.47842,67.726467 l -75.940712,67.78219 -0.0062,131.47016 c -0.0041,87.60645 0.713019,132.81411 2.149541,135.49828 2.043572,3.81845 4.268481,3.99904 42.748171,3.46983 l 40.59234,-0.55828 z"
     id="path43"
     inkscape:connector-curvature="0" /></svg>