<?xml version="1.0" encoding="UTF-8" standalone="no"?>
<!-- Generator: Adobe Illustrator 19.1.0, SVG Export Plug-In . SVG Version: 6.00 Build 0)  -->

<svg
   xmlns:dc="http://purl.org/dc/elements/1.1/"
   xmlns:cc="http://creativecommons.org/ns#"
   xmlns:rdf="http://www.w3.org/1999/02/22-rdf-syntax-ns#"
   xmlns:svg="http://www.w3.org/2000/svg"
   xmlns="http://www.w3.org/2000/svg"
   xmlns:sodipodi="http://sodipodi.sourceforge.net/DTD/sodipodi-0.dtd"
   xmlns:inkscape="http://www.inkscape.org/namespaces/inkscape"
   version="1.1"
   id="Capa_1"
   x="0px"
   y="0px"
   viewBox="0 0 473.806 473.806"
   style="enable-background:new 0 0 473.806 473.806;"
   xml:space="preserve"
   sodipodi:docname="phone-call.svg"
   inkscape:version="0.92.1 r15371"><metadata
     id="metadata47"><rdf:RDF><cc:Work
         rdf:about=""><dc:format>image/svg+xml</dc:format><dc:type
           rdf:resource="http://purl.org/dc/dcmitype/StillImage" /></cc:Work></rdf:RDF></metadata><defs
     id="defs45" /><sodipodi:namedview
     pagecolor="#ffffff"
     bordercolor="#666666"
     borderopacity="1"
     objecttolerance="10"
     gridtolerance="10"
     guidetolerance="10"
     inkscape:pageopacity="0"
     inkscape:pageshadow="2"
     inkscape:window-width="731"
     inkscape:window-height="480"
     id="namedview43"
     showgrid="false"
     inkscape:zoom="0.49809416"
     inkscape:cx="236.903"
     inkscape:cy="236.903"
     inkscape:window-x="0"
     inkscape:window-y="27"
     inkscape:window-maximized="0"
     inkscape:current-layer="Capa_1" /><g
     id="g10"><g
       id="g8"><path
         d="M374.456,293.506c-9.7-10.1-21.4-15.5-33.8-15.5c-12.3,0-24.1,5.3-34.2,15.4l-31.6,31.5c-2.6-1.4-5.2-2.7-7.7-4    c-3.6-1.8-7-3.5-9.9-5.3c-29.6-18.8-56.5-43.3-82.3-75c-12.5-15.8-20.9-29.1-27-42.6c8.2-7.5,15.8-15.3,23.2-22.8    c2.8-2.8,5.6-5.7,8.4-8.5c21-21,21-48.2,0-69.2l-27.3-27.3c-3.1-3.1-6.3-6.3-9.3-9.5c-6-6.2-12.3-12.6-18.8-18.6    c-9.7-9.6-21.3-14.7-33.5-14.7s-24,5.1-34,14.7c-0.1,0.1-0.1,0.1-0.2,0.2l-34,34.3c-12.8,12.8-20.1,28.4-21.7,46.5    c-2.4,29.2,6.2,56.4,12.8,74.2c16.2,43.7,40.4,84.2,76.5,127.6c43.8,52.3,96.5,93.6,156.7,122.7c23,10.9,53.7,23.8,88,26    c2.1,0.1,4.3,0.2,6.3,0.2c23.1,0,42.5-8.3,57.7-24.8c0.1-0.2,0.3-0.3,0.4-0.5c5.2-6.3,11.2-12,17.5-18.1c4.3-4.1,8.7-8.4,13-12.9    c9.9-10.3,15.1-22.3,15.1-34.6c0-12.4-5.3-24.3-15.4-34.3L374.456,293.506z M410.256,398.806    C410.156,398.806,410.156,398.906,410.256,398.806c-3.9,4.2-7.9,8-12.2,12.2c-6.5,6.2-13.1,12.7-19.3,20    c-10.1,10.8-22,15.9-37.6,15.9c-1.5,0-3.1,0-4.6-0.1c-29.7-1.9-57.3-13.5-78-23.4c-56.6-27.4-106.3-66.3-147.6-115.6    c-34.1-41.1-56.9-79.1-72-119.9c-9.3-24.9-12.7-44.3-11.2-62.6c1-11.7,5.5-21.4,13.8-29.7l34.1-34.1c4.9-4.6,10.1-7.1,15.2-7.1    c6.3,0,11.4,3.8,14.6,7c0.1,0.1,0.2,0.2,0.3,0.3c6.1,5.7,11.9,11.6,18,17.9c3.1,3.2,6.3,6.4,9.5,9.7l27.3,27.3    c10.6,10.6,10.6,20.4,0,31c-2.9,2.9-5.7,5.8-8.6,8.6c-8.4,8.6-16.4,16.6-25.1,24.4c-0.2,0.2-0.4,0.3-0.5,0.5    c-8.6,8.6-7,17-5.2,22.7c0.1,0.3,0.2,0.6,0.3,0.9c7.1,17.2,17.1,33.4,32.3,52.7l0.1,0.1c27.6,34,56.7,60.5,88.8,80.8    c4.1,2.6,8.3,4.7,12.3,6.7c3.6,1.8,7,3.5,9.9,5.3c0.4,0.2,0.8,0.5,1.2,0.7c3.4,1.7,6.6,2.5,9.9,2.5c8.3,0,13.5-5.2,15.2-6.9    l34.2-34.2c3.4-3.4,8.8-7.5,15.1-7.5c6.2,0,11.3,3.9,14.4,7.3c0.1,0.1,0.1,0.1,0.2,0.2l55.1,55.1    C420.456,377.706,420.456,388.206,410.256,398.806z"
         id="path2" /><path
         d="M256.056,112.706c26.2,4.4,50,16.8,69,35.8s31.3,42.8,35.8,69c1.1,6.6,6.8,11.2,13.3,11.2c0.8,0,1.5-0.1,2.3-0.2    c7.4-1.2,12.3-8.2,11.1-15.6c-5.4-31.7-20.4-60.6-43.3-83.5s-51.8-37.9-83.5-43.3c-7.4-1.2-14.3,3.7-15.6,11    S248.656,111.506,256.056,112.706z"
         id="path4" /><path
         d="M473.256,209.006c-8.9-52.2-33.5-99.7-71.3-137.5s-85.3-62.4-137.5-71.3c-7.3-1.3-14.2,3.7-15.5,11    c-1.2,7.4,3.7,14.3,11.1,15.6c46.6,7.9,89.1,30,122.9,63.7c33.8,33.8,55.8,76.3,63.7,122.9c1.1,6.6,6.8,11.2,13.3,11.2    c0.8,0,1.5-0.1,2.3-0.2C469.556,223.306,474.556,216.306,473.256,209.006z"
         id="path6" /></g></g><g
     id="g12" /><g
     id="g14" /><g
     id="g16" /><g
     id="g18" /><g
     id="g20" /><g
     id="g22" /><g
     id="g24" /><g
     id="g26" /><g
     id="g28" /><g
     id="g30" /><g
     id="g32" /><g
     id="g34" /><g
     id="g36" /><g
     id="g38" /><g
     id="g40" /><path
     style="fill:#ffffff;stroke-width:2.00765252"
     d="M 324.92933,471.26883 C 291.9027,467.93898 235.52063,444.21007 193.13617,415.80249 114.83062,363.31928 48.949769,283.55041 16.5518,201.99325 0.05908943,160.47526 -2.6449508,123.19527 8.9925522,97.77561 15.022252,84.605012 54.360479,42.820582 68.570335,34.493052 80.12768,27.719996 97.704342,27.106379 109.81859,33.053037 c 9.59775,4.711355 73.85661,69.161443 79.13999,79.375503 5.7122,11.04308 6.56326,20.08251 3.01551,32.02907 -2.72873,9.18861 -6.30102,13.94957 -24.36824,32.47671 l -21.17077,21.70969 8.33879,14.03627 c 23.99532,40.3901 75.58561,91.05392 110.16684,108.18841 l 10.57111,5.23785 19.54368,-19.41368 c 20.89366,-20.75471 32.1026,-27.52418 45.64314,-27.56545 15.52228,-0.0474 25.89851,7.27095 61.49361,43.37089 18.36255,18.62303 35.0384,37.02208 37.05741,40.88681 5.31787,10.17926 4.92062,28.70606 -0.85199,39.73444 -6.4858,12.39093 -50.06214,55.31626 -62.61019,61.67484 -12.53018,6.34954 -30.01715,8.57569 -50.85815,6.47444 z m 33.60525,-25.9298 c 6.45211,-1.8485 13.87471,-7.93504 33.86111,-27.76619 24.98515,-24.7911 25.59757,-25.60793 25.59757,-34.14214 0,-8.63297 -0.43462,-9.1806 -34.41056,-43.35821 -18.92582,-19.03815 -36.48027,-35.13426 -39.00992,-35.76916 -8.14302,-2.04377 -15.30913,2.6493 -37.92192,24.83506 -12.19157,11.96132 -24.23016,22.37218 -26.75239,23.13525 -6.19618,1.87456 -25.62301,-7.37893 -48.75922,-23.22521 -41.44059,-28.38323 -91.30515,-84.35287 -106.2837,-119.29641 -7.28383,-16.99248 -6.59174,-18.59266 18.97833,-43.87971 13.12499,-12.97972 23.54604,-25.0013 24.30948,-28.04308 2.69573,-10.74067 -0.9272,-15.92604 -34.93027,-49.994431 -33.1871,-33.250866 -33.662153,-33.62818 -42.339021,-33.62818 -8.481649,0 -9.543569,0.755873 -31.73095,22.586091 -29.998469,29.51557 -31.676615,32.69728 -31.502461,59.72766 0.121181,18.80894 0.931352,23.42065 7.518953,42.80004 18.458745,54.30186 56.172647,112.73738 102.637339,159.0307 71.48497,71.22127 173.31206,120.57519 220.73763,106.98792 z"
     id="path49"
     inkscape:connector-curvature="0" /><path
     style="fill:#ffffff;stroke-width:2.00765252"
     d="m 365.35699,223.35135 c -1.687,-1.93237 -4.21443,-8.48234 -5.61651,-14.55549 -10.40122,-45.05328 -45.90459,-81.36203 -92.06535,-94.15383 -8.1048,-2.24596 -15.96019,-5.09954 -17.45642,-6.3413 -6.60083,-5.4782 -4.99947,-15.60414 3.15813,-19.969955 5.98129,-3.20109 28.00202,2.6326 49.1764,13.027715 36.95999,18.14474 66.22806,51.75512 78.34982,89.97405 5.73379,18.0782 6.28408,27.90611 1.81288,32.37731 -4.20224,4.20224 -13.54578,4.00927 -17.35895,-0.3585 z"
     id="path51"
     inkscape:connector-curvature="0" /><path
     style="fill:#ffffff;stroke-width:2.00765252"
     d="m 452.41862,221.06676 c -1.49392,-0.94667 -5.30498,-11.83517 -8.46903,-24.19669 C 427.84192,133.9396 386.77301,81.008555 329.65655,49.565229 315.70977,41.887355 279.89736,29.162777 266.04174,26.962123 c -11.42083,-1.81394 -18.15851,-8.93293 -15.52953,-16.408398 3.05801,-8.6954045 8.95177,-10.46848369 24.18405,-7.2755308 88.79128,18.6122088 165.1356,89.3361348 190.43758,176.4177458 7.58056,26.08997 8.42432,34.30966 4.02131,39.17491 -3.7256,4.11675 -11.99337,5.20152 -16.73653,2.19591 z"
     id="path53"
     inkscape:connector-curvature="0" /></svg>