<?xml version="1.0" encoding="UTF-8" standalone="no"?>
<!-- Generator: Adobe Illustrator 19.1.0, SVG Export Plug-In . SVG Version: 6.00 Build 0)  -->

<svg
   xmlns:dc="http://purl.org/dc/elements/1.1/"
   xmlns:cc="http://creativecommons.org/ns#"
   xmlns:rdf="http://www.w3.org/1999/02/22-rdf-syntax-ns#"
   xmlns:svg="http://www.w3.org/2000/svg"
   xmlns="http://www.w3.org/2000/svg"
   xmlns:sodipodi="http://sodipodi.sourceforge.net/DTD/sodipodi-0.dtd"
   xmlns:inkscape="http://www.inkscape.org/namespaces/inkscape"
   version="1.1"
   id="Capa_1"
   x="0px"
   y="0px"
   viewBox="0 0 480.3 480.3"
   style="enable-background:new 0 0 480.3 480.3;"
   xml:space="preserve"
   sodipodi:docname="settings-1.svg"
   inkscape:version="0.92.1 r15371"><metadata
     id="metadata47"><rdf:RDF><cc:Work
         rdf:about=""><dc:format>image/svg+xml</dc:format><dc:type
           rdf:resource="http://purl.org/dc/dcmitype/StillImage" /></cc:Work></rdf:RDF></metadata><defs
     id="defs45" /><sodipodi:namedview
     pagecolor="#ffffff"
     bordercolor="#666666"
     borderopacity="1"
     objecttolerance="10"
     gridtolerance="10"
     guidetolerance="10"
     inkscape:pageopacity="0"
     inkscape:pageshadow="2"
     inkscape:window-width="731"
     inkscape:window-height="480"
     id="namedview43"
     showgrid="false"
     inkscape:zoom="0.49135958"
     inkscape:cx="240.14999"
     inkscape:cy="240.14999"
     inkscape:window-x="0"
     inkscape:window-y="27"
     inkscape:window-maximized="0"
     inkscape:current-layer="Capa_1" /><g
     id="g10"><g
       id="g8"><path
         d="M254.15,234.1V13.5c0-7.5-6-13.5-13.5-13.5s-13.5,6-13.5,13.5v220.6c-31.3,6.3-55,34-55,67.2s23.7,60.9,55,67.2v98.2    c0,7.5,6,13.5,13.5,13.5s13.5-6,13.5-13.5v-98.2c31.3-6.3,55-34,55-67.2C309.15,268.2,285.55,240.4,254.15,234.1z M240.65,342.8    c-22.9,0-41.5-18.6-41.5-41.5s18.6-41.5,41.5-41.5s41.5,18.6,41.5,41.5S263.55,342.8,240.65,342.8z"
         id="path2" /><path
         d="M88.85,120.9V13.5c0-7.5-6-13.5-13.5-13.5s-13.5,6-13.5,13.5v107.4c-31.3,6.3-55,34-55,67.2s23.7,60.9,55,67.2v211.4    c0,7.5,6,13.5,13.5,13.5s13.5-6,13.5-13.5V255.2c31.3-6.3,55-34,55-67.2S120.15,127.2,88.85,120.9z M75.35,229.6    c-22.9,0-41.5-18.6-41.5-41.5s18.6-41.5,41.5-41.5s41.5,18.6,41.5,41.5S98.15,229.6,75.35,229.6z"
         id="path4" /><path
         d="M418.45,120.9V13.5c0-7.5-6-13.5-13.5-13.5s-13.5,6-13.5,13.5v107.4c-31.3,6.3-55,34-55,67.2s23.7,60.9,55,67.2v211.5    c0,7.5,6,13.5,13.5,13.5s13.5-6,13.5-13.5V255.2c31.3-6.3,55-34,55-67.2S449.85,127.2,418.45,120.9z M404.95,229.6    c-22.9,0-41.5-18.6-41.5-41.5s18.6-41.5,41.5-41.5s41.5,18.6,41.5,41.5S427.85,229.6,404.95,229.6z"
         id="path6" /></g></g><g
     id="g12" /><g
     id="g14" /><g
     id="g16" /><g
     id="g18" /><g
     id="g20" /><g
     id="g22" /><g
     id="g24" /><g
     id="g26" /><g
     id="g28" /><g
     id="g30" /><g
     id="g32" /><g
     id="g34" /><g
     id="g36" /><g
     id="g38" /><g
     id="g40" /><path
     style="fill:#ffffff;stroke-width:2.03516936"
     d="m 231.74995,474.58255 c -2.86888,-3.17009 -3.40816,-10.84526 -3.87697,-55.17748 l -0.54455,-51.49518 -10.57882,-3.94521 c -14.21327,-5.30062 -29.59373,-19.51337 -36.63637,-33.85489 -8.24324,-16.78638 -8.24324,-41.02305 0,-57.80943 7.04238,-14.34101 22.42252,-28.55377 36.63637,-33.85568 l 10.57882,-3.94601 0.52619,-112.52918 C 228.43139,-1.3760593 228.07983,1.9938485 240.36366,2.0663336 c 11.95195,0.070526 11.29726,-6.165858 12.40438,118.1611664 l 1.01759,114.27201 11.04332,4.11886 c 15.75019,5.87439 32.81721,23.12542 38.76429,39.18226 6.10801,16.49128 5.10103,38.14656 -2.46239,52.9547 -8.45681,16.55728 -25.22726,30.16654 -44.80126,36.35635 -3.2692,1.0338 -3.56155,5.37946 -3.56155,52.94157 0,44.39128 -0.45822,52.27355 -3.19812,55.01344 -4.30349,4.30349 -13.7187,4.04769 -17.81997,-0.48414 z m 30.40774,-136.88743 c 41.23635,-25.48545 15.0263,-88.42126 -32.11402,-77.11247 -22.51223,5.4006 -36.43361,29.516 -30.09935,52.13976 3.21678,11.4892 15.74202,25.09453 26.38742,28.6629 10.1613,3.40608 27.18039,1.65306 35.82595,-3.69019 z"
     id="path49"
     inkscape:connector-curvature="0" /><path
     style="fill:#ffffff;stroke-width:2.03516936"
     d="m 401.33541,478.7485 c -8.06442,-2.51464 -8.14067,-3.59987 -8.14067,-115.85974 0,-89.33478 -0.48167,-108.49258 -2.7277,-108.49258 -6.58369,0 -28.28284,-13.15271 -35.81349,-21.70799 -12.18498,-13.84288 -17.00062,-28.4973 -15.93948,-48.50536 0.6056,-11.41899 2.18774,-18.84758 5.2977,-24.87424 9.00216,-17.44486 23.73291,-30.21768 40.719,-35.30684 l 8.46397,-2.53587 V 65.192261 c 0,-61.0620147 0.44624,-63.6658839 10.91079,-63.6658839 3.02799,0 7.30674,1.6301593 9.50834,3.6225763 3.7963,3.4356052 4.0029,6.5227796 4.0029,59.8142006 v 56.191626 l 10.03625,3.56456 c 16.21169,5.75788 29.31179,17.54268 37.11081,33.38474 5.98036,12.14784 6.78493,15.71789 6.78493,30.1063 0,13.75112 -0.89635,18.14943 -5.68674,27.90445 -7.306,14.87767 -24.37641,30.68052 -38.04592,35.2208 l -10.19933,3.38766 v 108.40259 c 0,100.7185 -0.25246,108.6194 -3.56155,111.46141 -4.59496,3.94639 -8.89614,5.35349 -12.71981,4.16121 z m 21.51325,-252.62654 c 4.55656,-2.06955 11.13806,-7.22449 14.62557,-11.45544 14.21555,-17.24594 12.61247,-42.07337 -3.66623,-56.7802 -10.22079,-9.23387 -15.61936,-11.35412 -28.90977,-11.35412 -35.24674,0 -54.62535,40.10219 -33.04855,68.39083 10.66432,13.98166 33.72355,19.04524 50.99898,11.19893 z"
     id="path51"
     inkscape:connector-curvature="0" /><path
     style="fill:#ffffff;stroke-width:2.03516936"
     d="m 66.695411,475.06669 c -2.827575,-2.82756 -3.198124,-15.79678 -3.198124,-111.93432 0,-89.5384 -0.481585,-108.73619 -2.727693,-108.73619 -1.50023,0 -8.342302,-2.80564 -15.204603,-6.23478 -49.6790266,-24.82492 -49.349865,-96.62486 0.551195,-120.23231 6.761249,-3.19864 13.43796,-5.81643 14.837139,-5.81732 1.974145,-0.001 2.543962,-12.67839 2.543962,-56.597366 0,-61.4088158 0.439789,-63.9880269 10.910791,-63.9880269 3.027992,0 7.306745,1.6301593 9.50834,3.6225763 3.796302,3.4356052 4.002902,6.5227796 4.002902,59.8142006 v 56.191626 l 10.036251,3.56456 c 16.211689,5.75788 29.311789,17.54268 37.110809,33.38474 5.98112,12.14937 6.78474,15.71608 6.78331,30.1063 -0.001,13.46457 -0.94373,18.28495 -5.37976,27.51758 -8.27764,17.22812 -22.35379,30.12468 -39.112679,35.83502 l -9.437931,3.21581 v 108.37483 c 0,102.40714 -0.204942,108.56031 -3.721798,111.74301 -4.701032,4.25438 -13.333911,4.33827 -17.502111,0.17014 z M 93.151213,226.12196 c 4.556555,-2.06955 11.138057,-7.22449 14.625567,-11.45544 14.49587,-17.58601 12.64681,-41.84945 -4.38572,-57.54949 -9.993756,-9.21192 -18.139731,-11.62855 -34.045716,-10.10019 -29.646059,2.84861 -45.515719,37.36544 -29.252506,63.62478 11.055712,17.85109 33.451897,24.3854 53.058375,15.48034 z"
     id="path53"
     inkscape:connector-curvature="0" /></svg>