<?xml version="1.0" encoding="UTF-8" standalone="no"?>
<!-- Generator: Adobe Illustrator 19.1.0, SVG Export Plug-In . SVG Version: 6.00 Build 0)  -->

<svg
   xmlns:dc="http://purl.org/dc/elements/1.1/"
   xmlns:cc="http://creativecommons.org/ns#"
   xmlns:rdf="http://www.w3.org/1999/02/22-rdf-syntax-ns#"
   xmlns:svg="http://www.w3.org/2000/svg"
   xmlns="http://www.w3.org/2000/svg"
   xmlns:sodipodi="http://sodipodi.sourceforge.net/DTD/sodipodi-0.dtd"
   xmlns:inkscape="http://www.inkscape.org/namespaces/inkscape"
   version="1.1"
   id="Capa_1"
   x="0px"
   y="0px"
   viewBox="0 0 487.8 487.8"
   style="enable-background:new 0 0 487.8 487.8;"
   xml:space="preserve"
   sodipodi:docname="vector.svg"
   inkscape:version="0.92.1 r15371"><metadata
     id="metadata41"><rdf:RDF><cc:Work
         rdf:about=""><dc:format>image/svg+xml</dc:format><dc:type
           rdf:resource="http://purl.org/dc/dcmitype/StillImage" /></cc:Work></rdf:RDF></metadata><defs
     id="defs39" /><sodipodi:namedview
     pagecolor="#ffffff"
     bordercolor="#666666"
     borderopacity="1"
     objecttolerance="10"
     gridtolerance="10"
     guidetolerance="10"
     inkscape:pageopacity="0"
     inkscape:pageshadow="2"
     inkscape:window-width="731"
     inkscape:window-height="480"
     id="namedview37"
     showgrid="false"
     inkscape:zoom="0.48380485"
     inkscape:cx="243.89999"
     inkscape:cy="243.89999"
     inkscape:window-x="0"
     inkscape:window-y="27"
     inkscape:window-maximized="0"
     inkscape:current-layer="Capa_1" /><g
     id="g4"><path
       d="M480.894,160.8l-24.3-24.3c-4.1-4.1-9.6-6.4-15.4-6.4s-11.3,2.3-15.4,6.4l-3.3,3.3c-32.1-21.4-69.4-32.7-108.5-32.8   c-0.1,0-0.2,0-0.4,0c-24.3,0-47.8,4.3-69.9,12.7l42.6-42.6c5.4,2.6,11.3,3.9,17.4,3.9c10.8,0,21-4.2,28.6-11.9   c7.6-7.6,11.9-17.8,11.9-28.6s-4.2-21-11.9-28.6S314.494,0,303.694,0s-21,4.2-28.6,11.9s-11.9,17.8-11.9,28.6   c0,6.1,1.4,12.1,3.9,17.4l-76.7,76.7l-2.6-2.6c-4.1-4.1-9.6-6.4-15.4-6.4s-11.3,2.3-15.4,6.4l-24.6,24.5c-4.1,4.1-6.4,9.6-6.4,15.4   s2.3,11.3,6.4,15.4l2.6,2.6l-76.7,76.7c-5.4-2.6-11.3-3.9-17.4-3.9c-10.8,0-21,4.2-28.6,11.9c-15.8,15.8-15.8,41.5,0,57.2   c7.6,7.6,17.8,11.9,28.6,11.9s21-4.2,28.6-11.9c12.4-12.4,15.1-31,7.9-46l42.6-42.6c-8.4,22.2-12.8,45.9-12.7,70.3   c0.1,39.1,11.4,76.4,32.8,108.5l-4.1,4.1c-8.5,8.5-8.5,22.4,0,30.9l24.4,24.4c4.1,4.1,9.6,6.4,15.4,6.4c5.8,0,11.3-2.3,15.4-6.4   l24.4-24.4c8.5-8.5,8.5-22.4,0-30.9l-24.4-24.4c-4.1-4.1-9.6-6.4-15.4-6.4c-5.8,0-11.3,2.3-15.4,6.4l-0.7,0.7   c-35.1-56.9-33.6-130.5,4.7-185.9c2.5,1,5.1,1.5,7.9,1.5c5.8,0,11.3-2.3,15.4-6.4l24.4-24.4c6.3-6.3,7.9-15.5,4.9-23.3   c55.4-38.3,129-39.9,185.9-4.7l-1.5,1.5c-8.5,8.5-8.5,22.4,0,30.9l24.4,24.4c4.1,4.1,9.6,6.4,15.4,6.4s11.3-2.3,15.4-6.4l24.4-24.4   C489.494,183.2,489.494,169.4,480.894,160.8z M192.794,441.7l-17.1,17.1l-17.1-17.1l17.1-17.1L192.794,441.7z M293.994,31.1   c2.5-2.5,5.9-3.9,9.5-3.9s7,1.4,9.5,3.9s3.9,5.9,3.9,9.5s-1.4,7-3.9,9.5s-5.9,3.9-9.5,3.9s-7-1.4-9.5-3.9l0,0l0,0   c-2.5-2.5-3.9-5.9-3.9-9.5S291.494,33.7,293.994,31.1z M50.394,312.8c-2.5,2.5-5.9,3.9-9.5,3.9s-7-1.4-9.5-3.9   c-5.3-5.3-5.3-13.8,0-19c2.5-2.5,5.9-3.9,9.5-3.9s7,1.4,9.5,3.9C55.694,299,55.694,307.6,50.394,312.8z M172.194,189l-17.1-17.1   l17.1-17.1l8.5,8.5l0,0l0,0l8.5,8.5L172.194,189z M441.094,193.3l-17.1-17.1l17.1-17.1l17.1,17.1L441.094,193.3z"
       id="path2" /></g><g
     id="g6" /><g
     id="g8" /><g
     id="g10" /><g
     id="g12" /><g
     id="g14" /><g
     id="g16" /><g
     id="g18" /><g
     id="g20" /><g
     id="g22" /><g
     id="g24" /><g
     id="g26" /><g
     id="g28" /><g
     id="g30" /><g
     id="g32" /><g
     id="g34" /><path
     style="fill:#ffffff;stroke-width:2.06694913"
     d="m 168.7052,484.71513 c -3.31997,-1.42686 -13.36501,-10.16941 -22.32233,-19.4279 -15.91439,-16.4495 -16.26021,-17.02608 -15.15481,-25.26742 0.62216,-4.63858 3.08081,-10.50905 5.46367,-13.04548 l 4.33246,-4.61168 -10.44574,-19.8419 C 111.61106,366.4918 104.2661,322.33577 110.71627,283.1144 c 1.7813,-10.8315 4.67548,-23.76582 6.43151,-28.74297 1.75604,-4.97713 2.68188,-9.56024 2.05743,-10.18469 -0.62445,-0.62446 -10.47709,8.20635 -21.894751,19.62401 l -20.759387,20.7594 2.32458,8.63282 c 6.204522,23.04185 -10.219058,46.01457 -35.301767,49.37886 -10.663551,1.43029 -27.941013,-7.04644 -34.6575414,-17.0038 -10.3388448,-15.32748 -8.62787026,-36.71615 3.9774494,-49.72154 8.952083,-9.2362 18.142365,-12.11343 33.970853,-10.63534 l 12.725412,1.18831 37.735709,-37.77709 37.735703,-37.77711 -4.4595,-8.55575 c -6.57906,-12.62221 -4.52294,-17.67576 15.09234,-37.09416 19.63509,-19.438 24.62982,-21.47416 36.93865,-15.05843 l 8.63569,4.50116 37.4465,-37.405454 37.44649,-37.40546 -0.0725,-17.31134 c -0.0682,-16.258212 0.31264,-17.795379 6.26097,-25.267948 20.14812,-25.3110651 58.26138,-18.9521269 68.75382,11.471108 9.75893,28.296416 -17.24371,57.309426 -46.4854,49.946284 l -9.72394,-2.448517 -20.71484,20.714853 c -11.39317,11.393164 -20.29138,21.109524 -19.7738,21.591914 0.51756,0.48238 9.77725,-1.46591 20.57706,-4.32953 16.18522,-4.2916 24.53977,-5.22633 47.53983,-5.31888 35.8016,-0.14406 57.16158,4.77707 88.14252,20.30714 l 22.01338,11.03482 5.92433,-4.38003 c 3.72431,-2.7535 8.7501,-4.29994 13.53374,-4.16434 6.73394,0.19088 9.7034,2.34379 25.80958,18.71242 16.50771,16.77668 18.20017,19.23363 18.20017,26.42108 0,7.21028 -1.64105,9.56542 -18.21149,26.13586 -16.54418,16.54409 -18.93413,18.21149 -26.10311,18.21149 -7.12409,0 -9.65788,-1.72848 -26.05532,-17.77424 -9.9901,-9.77583 -18.7223,-19.99939 -19.40487,-22.71903 -1.0113,-4.02931 1.79423,-13.34962 6.526,-21.68018 1.26414,-2.22558 -31.34454,-16.24733 -48.00256,-20.64115 -11.61745,-3.06428 -23.29805,-4.42258 -39.27203,-4.56682 -30.61691,-0.27645 -51.69231,4.56266 -78.4019,18.00181 -20.30447,10.21637 -20.79568,10.63125 -20.15646,17.02404 0.90593,9.05992 -3.36216,16.16393 -18.58623,30.93584 -15.38686,14.92986 -20.34481,17.79914 -29.22182,16.91126 -6.41655,-0.64176 -6.84425,-0.1484 -16.45044,18.97712 -13.8131,27.50127 -18.38533,46.7307 -18.42989,77.51059 -0.0272,18.81143 1.02503,28.79804 4.35578,41.33898 4.24373,15.97849 18.1457,48.6418 20.64551,48.50758 0.67334,-0.0362 3.02976,-1.43137 5.23648,-3.10043 2.20672,-1.66908 7.56515,-3.03469 11.90761,-3.03469 7.01303,0 9.72944,1.75223 24.30641,15.67898 18.19288,17.38137 22.77747,26.10698 18.78343,35.74944 -3.44834,8.32499 -31.19963,35.10612 -38.56751,37.2192 -4.22202,1.21084 -8.29526,0.95115 -12.3389,-0.78672 z m 16.09625,-33.50624 c 4.31101,-4.20959 7.83821,-8.67145 7.83821,-9.91526 0,-1.2438 -3.72301,-5.89688 -8.27335,-10.34016 l -8.27335,-8.07871 -9.29979,9.12705 -9.29979,9.12705 8.70222,8.86692 c 4.78622,4.8768 9.16694,8.86692 9.73493,8.86692 0.56799,0 4.55991,-3.44422 8.87092,-7.65381 z M 46.727458,316.31632 c 5.167652,-1.96474 8.949179,-10.15473 7.668659,-16.6087 -1.911521,-9.63428 -15.784185,-13.74509 -23.332474,-6.91397 -3.796279,3.43558 -5.078467,14.20317 -2.198052,18.45883 1.612799,2.38284 8.830127,6.88951 11.202011,6.99483 0.778611,0.0345 3.775545,-0.83437 6.659856,-1.93099 z M 450.58201,185.4263 l 8.70222,-8.86692 -9.29978,-9.12706 -9.2998,-9.12705 -8.27334,8.07871 c -4.55035,4.44329 -8.27335,9.01339 -8.27335,10.15577 0,2.20923 14.46839,17.75347 16.52472,17.75347 0.6694,0 5.1331,-3.99012 9.91933,-8.86692 z m -268.70338,-4.1339 8.70222,-8.86692 -9.29979,-9.12706 -9.29979,-9.12705 -8.27335,8.07871 c -4.55034,4.44329 -8.27335,9.01339 -8.27335,10.15577 0,2.20923 14.46839,17.75347 16.52472,17.75347 0.66941,0 5.13311,-3.99012 9.91934,-8.86692 z M 316.06419,45.783076 c 2.85831,-10.800494 -2.49629,-18.912738 -12.48362,-18.912738 -16.3795,0 -19.20432,22.305756 -3.45956,27.317895 5.80033,1.846462 14.43481,-2.705587 15.94318,-8.405157 z"
     id="path43"
     inkscape:connector-curvature="0" /></svg>