<?xml version="1.0" encoding="UTF-8" standalone="no"?>
<!-- Generator: Adobe Illustrator 19.1.0, SVG Export Plug-In . SVG Version: 6.00 Build 0)  -->

<svg
   xmlns:dc="http://purl.org/dc/elements/1.1/"
   xmlns:cc="http://creativecommons.org/ns#"
   xmlns:rdf="http://www.w3.org/1999/02/22-rdf-syntax-ns#"
   xmlns:svg="http://www.w3.org/2000/svg"
   xmlns="http://www.w3.org/2000/svg"
   xmlns:sodipodi="http://sodipodi.sourceforge.net/DTD/sodipodi-0.dtd"
   xmlns:inkscape="http://www.inkscape.org/namespaces/inkscape"
   version="1.1"
   id="Capa_1"
   x="0px"
   y="0px"
   viewBox="0 0 485.5 485.5"
   style="enable-background:new 0 0 485.5 485.5;"
   xml:space="preserve"
   sodipodi:docname="a.svg"
   inkscape:version="0.92.1 r15371"><metadata
     id="metadata47"><rdf:RDF><cc:Work
         rdf:about=""><dc:format>image/svg+xml</dc:format><dc:type
           rdf:resource="http://purl.org/dc/dcmitype/StillImage" /></cc:Work></rdf:RDF></metadata><defs
     id="defs45" /><sodipodi:namedview
     pagecolor="#ffffff"
     bordercolor="#666666"
     borderopacity="1"
     objecttolerance="10"
     gridtolerance="10"
     guidetolerance="10"
     inkscape:pageopacity="0"
     inkscape:pageshadow="2"
     inkscape:window-width="1366"
     inkscape:window-height="692"
     id="namedview43"
     showgrid="false"
     inkscape:zoom="0.48609681"
     inkscape:cx="-106.34102"
     inkscape:cy="217.08245"
     inkscape:window-x="0"
     inkscape:window-y="27"
     inkscape:window-maximized="1"
     inkscape:current-layer="g10" /><g
     id="g10"><g
       id="g8"><path
         d="M422.1,126.2H126.4c-27.4,0-49.8-22.3-49.8-49.8c0-27.4,22.3-49.8,49.8-49.8h295.8c7.4,0,13.3-6,13.3-13.3    c0-7.4-6-13.3-13.3-13.3H126.4C84.3,0,50,34.3,50,76.4v332.7c0,42.1,34.3,76.4,76.4,76.4h295.8c7.4,0,13.3-6,13.3-13.3V139.5    C435.4,132.2,429.5,126.2,422.1,126.2z M408.8,458.9H126.4c-27.4,0-49.8-22.3-49.8-49.8V134.4c13.4,11.5,30.8,18.5,49.8,18.5    h282.4L408.8,458.9L408.8,458.9z"
         id="path2" /><path
         d="M130.6,64.3c-7.4,0-13.3,6-13.3,13.3s6,13.3,13.3,13.3h249.8c7.4,0,13.3-6,13.3-13.3s-6-13.3-13.3-13.3H130.6z"
         id="path4" /></g></g><g
     id="g12" /><g
     id="g14" /><g
     id="g16" /><g
     id="g18" /><g
     id="g20" /><g
     id="g22" /><g
     id="g24" /><g
     id="g26" /><g
     id="g28" /><g
     id="g30" /><g
     id="g32" /><g
     id="g34" /><g
     id="g36" /><g
     id="g38" /><g
     id="g40" /><path
     style="fill:#ffffff;stroke-width:2.05720329"
     d="M 108.41462,482.33129 C 87.262474,477.14498 63.712584,456.18068 56.058591,435.72356 51.795229,424.32871 51.761399,422.55885 52.313248,239.78181 L 52.870127,55.338771 58.895666,43.446928 C 66.329205,28.776291 81.113232,14.647637 96.651396,7.3649035 L 108.41462,1.8514831 267.27289,1.276491 c 157.27137,-0.56924807 158.89998,-0.53328501 163.03337,3.6001059 4.90082,4.9008123 5.31569,10.0571941 1.25603,15.6108241 -2.83417,3.877141 -7.51669,4.023219 -160.97617,5.021901 -157.14241,1.022648 -158.10471,1.054346 -166.28591,5.477039 -10.626941,5.744849 -20.557076,16.178742 -24.582178,25.829237 -4.511591,10.816899 -4.00973,29.431126 1.097208,40.695843 5.640411,12.441439 11.227525,18.129669 23.48497,23.909999 l 10.28602,4.85065 154.52712,0.0202 c 153.20072,0.0199 154.57365,0.0567 159.94756,4.28381 l 5.42045,4.26366 v 170.14082 c 0,150.66122 -0.36666,170.66429 -3.20245,174.71297 l -3.20247,4.57216 -156.7451,-0.21058 C 185.12153,483.93928 111.809,483.16357 108.41462,482.33129 Z m 300.8791,-176.52801 -0.52741,-153.77595 -151.20445,-1.0286 -151.20444,-1.0286 -10.735551,-4.85418 c -5.904551,-2.6698 -11.803787,-6.14133 -13.109414,-7.71451 -1.305629,-1.57319 -3.186258,-2.86034 -4.17918,-2.86034 -1.018369,0 -1.805309,62.59588 -1.805309,143.60033 v 143.6003 l 5.243569,10.52247 c 5.647011,11.33209 15.682248,20.27502 27.486115,24.49436 5.73909,2.05147 40.0685,2.66022 153.97463,2.73039 l 146.58882,0.0903 z"
     id="path49"
     inkscape:connector-curvature="0" /><path
     style="fill:#ffffff;stroke-width:2.05720329"
     d="m 120.87449,84.71048 c -4.39356,-6.272686 -4.03701,-9.180738 1.84704,-15.064794 l 5.0495,-5.0495 h 127.73363 127.73363 l 5.04949,5.0495 c 5.88407,5.884056 6.24061,8.792108 1.84706,15.064794 l -3.20247,4.572147 H 255.50466 124.07695 Z"
     id="path53"
     inkscape:connector-curvature="0" /></svg>