<?xml version="1.0" encoding="UTF-8" standalone="no"?>
<!-- Generator: Adobe Illustrator 19.1.0, SVG Export Plug-In . SVG Version: 6.00 Build 0)  -->

<svg
   xmlns:dc="http://purl.org/dc/elements/1.1/"
   xmlns:cc="http://creativecommons.org/ns#"
   xmlns:rdf="http://www.w3.org/1999/02/22-rdf-syntax-ns#"
   xmlns:svg="http://www.w3.org/2000/svg"
   xmlns="http://www.w3.org/2000/svg"
   xmlns:sodipodi="http://sodipodi.sourceforge.net/DTD/sodipodi-0.dtd"
   xmlns:inkscape="http://www.inkscape.org/namespaces/inkscape"
   version="1.1"
   id="Capa_1"
   x="0px"
   y="0px"
   viewBox="0 0 473 473"
   style="enable-background:new 0 0 473 473;"
   xml:space="preserve"
   sodipodi:docname="chat-2.svg"
   inkscape:version="0.92.1 r15371"><metadata
     id="metadata49"><rdf:RDF><cc:Work
         rdf:about=""><dc:format>image/svg+xml</dc:format><dc:type
           rdf:resource="http://purl.org/dc/dcmitype/StillImage" /></cc:Work></rdf:RDF></metadata><defs
     id="defs47" /><sodipodi:namedview
     pagecolor="#ffffff"
     bordercolor="#666666"
     borderopacity="1"
     objecttolerance="10"
     gridtolerance="10"
     guidetolerance="10"
     inkscape:pageopacity="0"
     inkscape:pageshadow="2"
     inkscape:window-width="1366"
     inkscape:window-height="692"
     id="namedview45"
     showgrid="false"
     inkscape:zoom="0.49894292"
     inkscape:cx="236.5"
     inkscape:cy="236.5"
     inkscape:window-x="0"
     inkscape:window-y="27"
     inkscape:window-maximized="1"
     inkscape:current-layer="Capa_1" /><g
     id="g12"><g
       id="g10"><path
         d="M403.581,69.3c-44.7-44.7-104-69.3-167.2-69.3s-122.5,24.6-167.2,69.3c-86.4,86.4-92.4,224.7-14.9,318    c-7.6,15.3-19.8,33.1-37.9,42c-8.7,4.3-13.6,13.6-12.1,23.2s8.9,17.1,18.5,18.6c4.5,0.7,10.9,1.4,18.7,1.4    c20.9,0,51.7-4.9,83.2-27.6c35.1,18.9,73.5,28.1,111.6,28.1c61.2,0,121.8-23.7,167.4-69.3c44.7-44.7,69.3-104,69.3-167.2    S448.281,114,403.581,69.3z M384.481,384.6c-67.5,67.5-172,80.9-254.2,32.6c-5.4-3.2-12.1-2.2-16.4,2.1c-0.4,0.2-0.8,0.5-1.1,0.8    c-27.1,21-53.7,25.4-71.3,25.4h-0.1c20.3-14.8,33.1-36.8,40.6-53.9c1.2-2.9,1.4-5.9,0.7-8.7c-0.3-2.7-1.4-5.4-3.3-7.6    c-73.2-82.7-69.4-208.7,8.8-286.9c81.7-81.7,214.6-81.7,296.2,0C466.181,170.1,466.181,302.9,384.481,384.6z"
         id="path2" /><circle
         cx="236.381"
         cy="236.5"
         r="16.6"
         id="circle4" /><circle
         cx="321.981"
         cy="236.5"
         r="16.6"
         id="circle6" /><circle
         cx="150.781"
         cy="236.5"
         r="16.6"
         id="circle8" /></g></g><g
     id="g14" /><g
     id="g16" /><g
     id="g18" /><g
     id="g20" /><g
     id="g22" /><g
     id="g24" /><g
     id="g26" /><g
     id="g28" /><g
     id="g30" /><g
     id="g32" /><g
     id="g34" /><g
     id="g36" /><g
     id="g38" /><g
     id="g40" /><g
     id="g42" /><path
     style="fill:#ffffff;stroke-width:2.00423717"
     d="m 22.817576,469.95111 c -21.7003797,-5.58268 -23.78970705,-29.38777 -3.616909,-41.20982 10.417451,-6.10503 26.456564,-22.999 32.140934,-33.85401 l 3.841178,-7.33521 -6.307457,-8.4843 C 28.931334,352.24067 13.715523,318.73025 5.9754353,284.58757 -2.1577433,248.71088 0.83897994,198.15508 13.264204,161.6234 34.456354,99.3159 83.274941,46.251874 143.15602,20.435731 277.2142,-37.359907 430.07735,39.230606 465.62677,182.00639 c 5.24042,21.04684 7.18379,64.81293 3.88095,87.40124 -14.91165,101.98131 -92.72304,181.68259 -194.4313,199.15365 -45.10953,7.74874 -94.54008,1.25248 -135.90981,-17.86151 -14.86832,-6.86958 -14.98925,-6.8886 -20.24202,-3.18481 -9.08585,6.40654 -24.772321,13.63388 -39.344262,18.12736 -15.378248,4.74211 -46.03321,7.06911 -56.762752,4.30879 z M 281.58768,441.62872 c 39.20703,-8.37517 72.12669,-26.44407 101.89292,-55.9269 28.2077,-27.93913 44.09146,-54.36129 54.71269,-91.01292 C 466.0168,198.67576 421.89285,95.981665 333.10424,50.104581 313.24738,39.844536 290.36588,32.303808 268.42121,28.787908 246.48188,25.272865 204.4588,27.298676 183.78856,32.867802 108.18876,53.236441 51.168296,110.93162 32.007261,186.44511 c -3.790025,14.93646 -4.508256,23.08593 -4.482098,50.85658 0.02812,29.86655 0.56676,35.01136 5.56053,53.11229 7.193666,26.07491 19.963373,52.10356 36.336351,74.06481 7.233893,9.70291 13.152532,18.9667 13.152532,20.5862 0,7.26272 -17.619202,36.205 -29.281095,48.09877 L 40.96008,445.74237 h 7.991466 c 17.539529,0 40.48616,-8.57316 63.055534,-23.55838 l 10.70445,-7.10737 21.51945,10.19728 c 45.1343,21.3875 89.22228,26.63697 137.3567,16.35482 z"
     id="path51"
     inkscape:connector-curvature="0" /><path
     style="fill:#ffffff;stroke-width:2.00423717"
     d="m 139.38028,246.18791 c -4.14882,-4.14883 -4.90519,-6.37738 -3.91134,-11.52437 2.52486,-13.07583 17.08375,-17.75662 26.36411,-8.47625 6.01209,6.01209 6.27594,12.85786 0.76555,19.86318 -5.66173,7.19772 -16.09627,7.25948 -23.21832,0.13743 z"
     id="path53"
     inkscape:connector-curvature="0" /><path
     style="fill:#ffffff;stroke-width:2.00423717"
     d="m 225.02089,246.05047 c -5.51039,-7.00532 -5.24654,-13.85109 0.76555,-19.86318 12.15316,-12.15316 30.8326,0.53766 24.15764,16.4127 -4.37053,10.39444 -17.97909,12.27847 -24.92319,3.45048 z"
     id="path55"
     inkscape:connector-curvature="0" /><path
     style="fill:#ffffff;stroke-width:2.00423717"
     d="m 311.05763,247.32288 c -5.58262,-5.58261 -5.2757,-16.14891 0.63023,-21.69724 9.69796,-9.11076 25.42485,-2.33452 25.42485,10.9548 0,12.59536 -17.13674,19.66079 -26.05508,10.74244 z"
     id="path57"
     inkscape:connector-curvature="0" /></svg>