<?xml version="1.0" encoding="UTF-8" standalone="no"?>
<!-- Generator: Adobe Illustrator 19.1.0, SVG Export Plug-In . SVG Version: 6.00 Build 0)  -->

<svg
   xmlns:dc="http://purl.org/dc/elements/1.1/"
   xmlns:cc="http://creativecommons.org/ns#"
   xmlns:rdf="http://www.w3.org/1999/02/22-rdf-syntax-ns#"
   xmlns:svg="http://www.w3.org/2000/svg"
   xmlns="http://www.w3.org/2000/svg"
   xmlns:sodipodi="http://sodipodi.sourceforge.net/DTD/sodipodi-0.dtd"
   xmlns:inkscape="http://www.inkscape.org/namespaces/inkscape"
   version="1.1"
   id="Capa_1"
   x="0px"
   y="0px"
   viewBox="0 0 481.2 481.2"
   style="enable-background:new 0 0 481.2 481.2;"
   xml:space="preserve"
   sodipodi:docname="folder.svg"
   inkscape:version="0.92.1 r15371"><metadata
     id="metadata41"><rdf:RDF><cc:Work
         rdf:about=""><dc:format>image/svg+xml</dc:format><dc:type
           rdf:resource="http://purl.org/dc/dcmitype/StillImage" /></cc:Work></rdf:RDF></metadata><defs
     id="defs39" /><sodipodi:namedview
     pagecolor="#ffffff"
     bordercolor="#666666"
     borderopacity="1"
     objecttolerance="10"
     gridtolerance="10"
     guidetolerance="10"
     inkscape:pageopacity="0"
     inkscape:pageshadow="2"
     inkscape:window-width="731"
     inkscape:window-height="480"
     id="namedview37"
     showgrid="false"
     inkscape:zoom="0.49044055"
     inkscape:cx="240.60001"
     inkscape:cy="240.60001"
     inkscape:window-x="0"
     inkscape:window-y="27"
     inkscape:window-maximized="0"
     inkscape:current-layer="Capa_1" /><g
     id="g4"><path
       d="M403.9,97.85h-114c-27.7,0-50.3-22.5-50.3-50.3c0-7.5-6-13.5-13.5-13.5H77.3c-42.6,0-77.3,34.7-77.3,77.3v258.5   c0,42.6,34.7,77.3,77.3,77.3h326.6c42.6,0,77.3-34.7,77.3-77.3v-194.8C481.2,132.45,446.5,97.85,403.9,97.85z M454.2,369.75   c0,27.7-22.5,50.3-50.3,50.3H77.3c-27.7,0-50.3-22.5-50.3-50.3v-258.4c0-27.7,22.5-50.3,50.3-50.3h136.5   c6.4,36.2,38.1,63.8,76.1,63.8h114c27.7,0,50.3,22.5,50.3,50.3L454.2,369.75L454.2,369.75z"
       id="path2" /></g><g
     id="g6" /><g
     id="g8" /><g
     id="g10" /><g
     id="g12" /><g
     id="g14" /><g
     id="g16" /><g
     id="g18" /><g
     id="g20" /><g
     id="g22" /><g
     id="g24" /><g
     id="g26" /><g
     id="g28" /><g
     id="g30" /><g
     id="g32" /><g
     id="g34" /><path
     style="fill:#ffffff;stroke-width:2.03898311"
     d="M 57.499323,443.33257 C 35.014129,437.33404 13.783315,417.65435 5.3902321,395.03055 1.6041176,384.82497 1.4272882,377.93416 1.4272882,240.60001 1.4272882,103.26585 1.6041176,96.375048 5.3902321,86.169467 10.827107,71.514215 21.866889,57.528554 35.144033,48.476097 54.314942,35.405227 60.507423,34.662713 150.34602,34.662713 h 79.75602 l 4.4334,4.719127 c 2.43836,2.59552 4.43338,7.306164 4.43338,10.468099 0,10.378824 4.66307,21.605039 12.82626,30.878922 14.52833,16.505052 11.66154,15.979533 94.22035,17.271773 69.91704,1.094367 73.95991,1.367523 85.12074,5.751156 15.46324,6.07349 32.63786,21.92786 40.92371,37.77783 l 6.48945,12.4136 v 118.26102 118.26102 l -5.74663,11.7026 c -7.63011,15.53824 -21.83873,29.3665 -38.08567,37.06619 l -13.25922,6.28376 -176.37204,0.40325 C 95.596318,446.26285 67.004433,445.86825 57.499323,443.33257 Z M 423.20083,417.22712 c 9.57191,-3.9994 21.2115,-14.80907 26.41311,-24.52982 4.44211,-8.30137 4.4676,-8.98855 4.4676,-120.49306 0,-111.00924 -0.0445,-112.2266 -4.40098,-120.3 -5.14966,-9.5434 -13.13699,-17.38584 -23.12529,-22.70578 -6.4679,-3.44493 -14.01279,-3.8965 -80.53984,-4.82049 l -73.40339,-1.01949 -11.69451,-5.48083 c -6.43199,-3.01446 -15.08398,-8.06094 -19.22667,-11.21441 -9.3948,-7.15143 -21.64007,-25.818049 -25.14229,-38.326691 l -2.65313,-9.476037 -73.61034,0.650994 C 75.006106,60.088818 65.764066,60.572789 58.628567,63.787556 45.50055,69.702142 37.854072,76.71917 32.222827,88.019604 l -5.30825,10.652271 V 240.04634 c 0,153.35802 -0.395913,147.61214 11.220479,162.84202 2.737547,3.58912 9.770881,8.91437 15.629631,11.83391 l 10.652272,5.30825 H 240.45414 c 144.74631,0 177.22982,-0.49831 182.74669,-2.8034 z"
     id="path43"
     inkscape:connector-curvature="0" /></svg>