<?xml version="1.0" encoding="UTF-8" standalone="no"?>
<!-- Generator: Adobe Illustrator 19.1.0, SVG Export Plug-In . SVG Version: 6.00 Build 0)  -->

<svg
   xmlns:dc="http://purl.org/dc/elements/1.1/"
   xmlns:cc="http://creativecommons.org/ns#"
   xmlns:rdf="http://www.w3.org/1999/02/22-rdf-syntax-ns#"
   xmlns:svg="http://www.w3.org/2000/svg"
   xmlns="http://www.w3.org/2000/svg"
   xmlns:sodipodi="http://sodipodi.sourceforge.net/DTD/sodipodi-0.dtd"
   xmlns:inkscape="http://www.inkscape.org/namespaces/inkscape"
   version="1.1"
   id="Capa_1"
   x="0px"
   y="0px"
   viewBox="0 0 471.2 471.2"
   style="enable-background:new 0 0 471.2 471.2;"
   xml:space="preserve"
   sodipodi:docname="upload-1.svg"
   inkscape:version="0.92.1 r15371"><metadata
     id="metadata45"><rdf:RDF><cc:Work
         rdf:about=""><dc:format>image/svg+xml</dc:format><dc:type
           rdf:resource="http://purl.org/dc/dcmitype/StillImage" /></cc:Work></rdf:RDF></metadata><defs
     id="defs43" /><sodipodi:namedview
     pagecolor="#ffffff"
     bordercolor="#666666"
     borderopacity="1"
     objecttolerance="10"
     gridtolerance="10"
     guidetolerance="10"
     inkscape:pageopacity="0"
     inkscape:pageshadow="2"
     inkscape:window-width="731"
     inkscape:window-height="480"
     id="namedview41"
     showgrid="false"
     inkscape:zoom="0.50084888"
     inkscape:cx="235.60001"
     inkscape:cy="235.60001"
     inkscape:window-x="0"
     inkscape:window-y="27"
     inkscape:window-maximized="0"
     inkscape:current-layer="Capa_1" /><g
     id="g8"><g
       id="g6"><path
         d="M457.7,230.15c-7.5,0-13.5,6-13.5,13.5v122.8c0,33.4-27.2,60.5-60.5,60.5H87.5c-33.4,0-60.5-27.2-60.5-60.5v-124.8    c0-7.5-6-13.5-13.5-13.5s-13.5,6-13.5,13.5v124.8c0,48.3,39.3,87.5,87.5,87.5h296.2c48.3,0,87.5-39.3,87.5-87.5v-122.8    C471.2,236.25,465.2,230.15,457.7,230.15z"
         id="path2" /><path
         d="M159.3,126.15l62.8-62.8v273.9c0,7.5,6,13.5,13.5,13.5s13.5-6,13.5-13.5V63.35l62.8,62.8c2.6,2.6,6.1,4,9.5,4    c3.5,0,6.9-1.3,9.5-4c5.3-5.3,5.3-13.8,0-19.1l-85.8-85.8c-2.5-2.5-6-4-9.5-4c-3.6,0-7,1.4-9.5,4l-85.8,85.8    c-5.3,5.3-5.3,13.8,0,19.1C145.5,131.35,154.1,131.35,159.3,126.15z"
         id="path4" /></g></g><g
     id="g10" /><g
     id="g12" /><g
     id="g14" /><g
     id="g16" /><g
     id="g18" /><g
     id="g20" /><g
     id="g22" /><g
     id="g24" /><g
     id="g26" /><g
     id="g28" /><g
     id="g30" /><g
     id="g32" /><g
     id="g34" /><g
     id="g36" /><g
     id="g38" /><path
     style="fill:#ffffff;stroke-width:1.99661016"
     d="M 66.496367,450.07084 C 34.157578,441.37445 8.4359365,413.88622 2.4064752,381.57919 1.302541,375.66409 0.39932204,340.8482 0.39932204,304.21054 c 0,-63.95178 0.15958427,-66.77351 3.99322046,-70.60714 5.1052934,-5.1053 12.8641975,-5.1053 17.9694915,0 3.840935,3.84093 3.993221,6.65536 3.993221,73.79968 0,65.01047 0.275448,70.54266 4.009193,80.52198 5.206289,13.91506 14.890446,25.04282 28.218488,32.42499 l 10.699439,5.92623 H 235.00102 400.71967 l 9.18413,-4.52536 c 12.50319,-6.1608 23.27287,-17.2554 29.52455,-30.41532 l 5.21675,-10.98135 0.61813,-70.85393 c 0.53641,-61.48602 1.03929,-71.31929 3.80352,-74.37373 4.17357,-4.61173 13.04701,-4.49245 17.32339,0.23288 3.09283,3.41755 3.34334,10.42614 2.8052,78.47644 l -0.59092,74.72375 -7.43899,15.04586 c -11.59939,23.4605 -31.79087,40.12515 -56.37287,46.52626 -17.19711,4.4781 -321.621028,4.42327 -338.296193,-0.0609 z"
     id="path47"
     inkscape:connector-curvature="0" /><path
     style="fill:#ffffff;stroke-width:1.99661016"
     d="m 227.32403,345.75551 c -3.00819,-3.32402 -3.30436,-16.11959 -3.30436,-142.75764 0,-76.50849 -0.68473,-139.106343 -1.52162,-139.106343 -0.83689,0 -15.39138,13.891458 -32.34332,30.869904 -16.95194,16.978449 -33.33293,31.910089 -36.4022,33.181419 -8.08342,3.34826 -15.5871,-1.8241 -15.5871,-10.74435 0,-5.82199 4.84771,-11.33097 46.51859,-52.864143 35.09638,-34.980395 47.70869,-46.364865 51.36543,-46.364865 7.36819,0 97.78378,90.833198 97.78378,98.235428 0,5.60575 -7.9917,13.57474 -13.61341,13.57474 -1.70051,0 -18.00983,-14.82483 -36.24294,-32.944064 -18.2331,-18.119238 -33.79163,-32.944069 -34.5745,-32.944069 -0.78286,0 -1.42339,62.244073 -1.42339,138.320153 0,121.95909 -0.36764,138.84503 -3.10813,142.75762 -3.8375,5.4788 -12.93134,5.88625 -17.54683,0.78621 z"
     id="path49"
     inkscape:connector-curvature="0" /></svg>