<?xml version="1.0" encoding="UTF-8" standalone="no"?>
<!-- Created with Inkscape (http://www.inkscape.org/) -->

<svg
   xmlns:dc="http://purl.org/dc/elements/1.1/"
   xmlns:cc="http://creativecommons.org/ns#"
   xmlns:rdf="http://www.w3.org/1999/02/22-rdf-syntax-ns#"
   xmlns:svg="http://www.w3.org/2000/svg"
   xmlns="http://www.w3.org/2000/svg"
   xmlns:sodipodi="http://sodipodi.sourceforge.net/DTD/sodipodi-0.dtd"
   xmlns:inkscape="http://www.inkscape.org/namespaces/inkscape"
   version="1.1"
   id="svg2"
   width="415"
   height="714"
   viewBox="0 0 415 714"
   sodipodi:docname="Io_Crop_21_4.svg"
   inkscape:version="0.92.1 r15371">
  <metadata
     id="metadata8">
    <rdf:RDF>
      <cc:Work
         rdf:about="">
        <dc:format>image/svg+xml</dc:format>
        <dc:type
           rdf:resource="http://purl.org/dc/dcmitype/StillImage" />
        <dc:title />
      </cc:Work>
    </rdf:RDF>
  </metadata>
  <defs
     id="defs6" />
  <sodipodi:namedview
     pagecolor="#ffffff"
     bordercolor="#666666"
     borderopacity="1"
     objecttolerance="10"
     gridtolerance="10"
     guidetolerance="10"
     inkscape:pageopacity="0"
     inkscape:pageshadow="2"
     inkscape:window-width="1366"
     inkscape:window-height="692"
     id="namedview4"
     showgrid="false"
     inkscape:zoom="0.46744314"
     inkscape:cx="1.8232831"
     inkscape:cy="375.29879"
     inkscape:window-x="0"
     inkscape:window-y="27"
     inkscape:window-maximized="1"
     inkscape:current-layer="svg2" />
  <path
     style="fill:#000000"
     d="M 0,585.59819 C 0,457.19637 0,457.19637 6.25,456.44657 c 16.824688,-2.01844 37.809058,-1.2085 45.526031,1.7572 C 55.777849,459.74169 59.93389,461 61.01168,461 c 1.07779,0 4.065845,0.5625 6.640124,1.25 3.792633,1.01288 4.761979,1.00587 5.11,-0.0369 1.375466,-4.12148 5.587703,-7.37006 8.779824,-6.77122 2.371332,0.44487 3.381255,0.20152 3.810963,-0.91828 0.84834,-2.21074 3.077379,-1.87408 6.46504,0.97645 1.634094,1.375 3.518219,2.5 4.186944,2.5 0.668725,0 3.212216,2.025 5.652205,4.5 2.43998,2.475 5.06921,4.5 5.84273,4.5 2.14128,0 6.50049,2.19761 6.50049,3.27709 0,0.52584 1.125,0.74101 2.5,0.47816 1.375,-0.26285 2.5,-0.0289 2.5,0.51979 0,0.54873 1.22056,-0.22287 2.71235,-1.71466 1.86783,-1.86783 3.44179,-2.57291 5.05511,-2.2645 2.83104,0.54119 6.78596,-6.62054 5.9811,-10.83085 -0.30675,-1.60466 0.0669,-2.82198 1.03184,-3.36201 1.77539,-0.99356 -0.0707,-7.91099 -4.3644,-16.35354 C 126.50313,431.02197 126.50136,431 128.95308,431 c 1.23272,0 2.53987,1.23656 3.54401,3.35263 5.75988,12.13803 14.91654,14.05374 15.88348,3.32306 0.2391,-2.65337 0.6131,-5.0027 0.83113,-5.22072 0.94333,-0.94333 11.04231,3.15114 11.94847,4.84432 0.96726,1.80732 1.04512,1.80837 2.48203,0.0333 1.06702,-1.31815 1.62956,-1.48169 2.00395,-0.58258 0.67023,1.60954 11.51788,1.68597 13.11147,0.0924 0.87682,-0.87682 1.50621,-0.86831 2.59474,0.0351 0.79042,0.65599 1.82199,1.08032 2.29238,0.94297 1.96664,-0.57424 10.35549,3.52731 10.36023,5.06542 0.016,5.20572 17.15616,11.90729 28.74503,11.23893 1.81205,-0.10451 3.25,0.29964 3.25,0.91344 0,2.8179 4.38903,0.13928 6.6168,-4.03823 1.31986,-2.475 2.73352,-4.50689 3.14147,-4.51531 3.31096,-0.0684 4.41791,-4.48469 1.12408,-4.48469 -1.1647,0 -3.93617,-1.81853 -6.15882,-4.04118 -2.5907,-2.59069 -4.38683,-3.69552 -5.00421,-3.07814 -0.52967,0.52967 -1.53651,0.74297 -2.23742,0.474 -1.6379,-0.62852 -4.4819,3.4122 -4.4819,6.36783 0,1.25262 -0.22598,2.27749 -0.50219,2.27749 -1.28517,0 -7.28559,-7.38945 -6.87316,-8.46423 0.2565,-0.66844 -0.22911,-1.79254 -1.07914,-2.498 -2.66902,-2.21509 -2.01178,-8.02769 2.63316,-23.28777 0.6278,-2.0625 1.46401,-3.75 1.85825,-3.75 0.39423,0 1.69416,-2.27195 2.88872,-5.04878 1.19456,-2.77684 2.99373,-5.87059 3.99814,-6.875 1.00442,-1.00442 1.82622,-3.02923 1.82622,-4.49958 0,-1.47034 0.68112,-3.21409 1.5136,-3.875 2.06754,-1.64141 3.2696,-8.75407 1.64876,-9.7558 -0.67818,-0.41914 -1.32342,-1.59092 -1.43387,-2.60396 -0.11044,-1.01303 -0.55515,-2.67816 -0.98824,-3.70029 -0.80148,-1.89158 -0.98493,-8.46859 -0.46639,-16.72134 0.42369,-6.74306 -5.90201,-14.65197 -7.33453,-9.17025 -0.33379,1.27727 -0.48866,1.12291 -0.57333,-0.57143 C 215.9715,340.28676 213.77397,338 211.13952,338 209.40465,338 205,333.37629 205,331.55514 205,329.92093 200.43602,325 198.92035,325 c -0.98311,0 -1.96889,-1.05724 -2.33099,-2.5 -0.34511,-1.375 -1.06889,-2.5 -1.60841,-2.5 C 194.44143,320 194,319.35532 194,318.56739 c 0,-0.78794 -1.0125,-1.74377 -2.25,-2.12408 -2.50293,-0.7692 -4.20135,-2.37859 -7.60365,-7.20507 -1.2646,-1.79396 -2.71487,-3.00491 -3.22282,-2.69098 -0.97196,0.60071 -1.25683,-0.6267 -0.97517,-4.20175 0.0934,-1.18497 -0.24446,-2.41047 -0.75069,-2.72335 -4.3161,-2.66749 5.99697,-18.71641 14.24059,-22.16081 8.69321,-3.63226 6.06598,-8.51183 -5.87049,-10.90327 -13.28754,-2.66214 -9.57388,-6.21958 15.34467,-14.69923 6.27685,-2.13598 12.06681,-4.42667 12.86659,-5.09043 0.79978,-0.66376 4.41914,-1.27305 8.04302,-1.35399 3.92037,-0.0876 6.74274,-0.60881 6.96882,-1.28703 0.20897,-0.62692 0.81682,-0.86986 1.35078,-0.53986 2.21825,1.37096 9.85835,-1.94171 9.85835,-4.27447 0,-1.5171 0.45577,-2.0754 1.39885,-1.71351 1.91181,0.73363 2.53704,-0.64785 1.51596,-3.34956 -0.49747,-1.31627 -1.69372,-2.25 -2.88259,-2.25 -1.94412,0 -2.62367,-1.90107 -2.08673,-5.83769 0.12703,-0.93135 -0.4669,-1.1316 -1.95523,-0.65922 -2.99622,0.95097 -8.01802,-1.26718 -7.27174,-3.21195 0.44568,-1.16143 0.10165,-1.36884 -1.45234,-0.87562 -3.18408,1.01059 -6.58783,-1.14954 -8.70517,-5.52457 -2.44355,-5.0491 -3.56101,-5.76561 -3.56101,-2.2833 0,1.49913 -0.32202,2.40367 -0.71559,2.01009 -0.39358,-0.39358 -0.73108,-2.13546 -0.75,-3.87085 -0.0275,-2.52089 -0.53703,-3.27914 -2.53441,-3.7715 -1.98823,-0.4901 -2.459,-1.18277 -2.2997,-3.38374 0.14864,-2.05362 -0.1738,-2.62393 -1.25,-2.21095 -1.46264,0.56126 -1.83803,-0.36822 -1.49188,-3.69394 0.1038,-0.99728 -0.50773,-2.87617 -1.35895,-4.1753 -1.04828,-1.59987 -1.18709,-2.48225 -0.43018,-2.73456 0.80243,-0.26747 0.76602,-1.02925 -0.12914,-2.70187 -0.76307,-1.42582 -0.8765,-2.57097 -0.29242,-2.9522 3.57562,-2.33385 -2.22173,-14.80202 -5.84214,-12.56448 C 198.94343,174.15299 195,170.4887 195,169 c 0,-1.42807 -1.75372,-1.23884 -2.2475,0.24251 -0.2278,0.68338 -0.71531,-0.9545 -1.08336,-3.63974 -0.52182,-3.8071 -0.3292,-5.13085 0.87466,-6.01114 1.3697,-1.00155 1.28387,-1.63443 -0.76084,-5.61026 -1.26758,-2.46475 -2.32325,-4.93137 -2.34592,-5.48137 -0.26346,-6.38973 -2.93003,-11.04481 -4.26287,-7.44178 -0.72646,1.96381 -0.98276,1.73151 -2.51439,-2.279 -1.67,-4.37284 -5.46868,-7.6334 -7.45964,-6.40291 -0.54481,0.33671 -1.2352,-0.0253 -1.53418,-0.80443 -0.75578,-1.96953 -4.28662,-0.8696 -6.584,2.05106 C 166.05357,134.93032 164.46263,136 163.54654,136 161.2195,136 153,143.07048 153,145.07222 c 0,0.90678 -1.0125,3.17398 -2.25,5.03823 -3.18746,4.8018 -4.52086,7.8671 -5.17987,11.90778 -0.31559,1.93502 -1.50139,5.24892 -2.63512,7.36422 -1.19373,2.22724 -1.76807,4.53447 -1.36458,5.48177 1.33307,3.12972 1.26422,10.67126 -0.14864,16.28012 -0.78198,3.10439 -1.4243,8.27939 -1.42737,11.5 -0.007,7.30266 -1.41057,12.51731 -4.00003,14.86074 -1.09692,0.99269 -1.99476,2.97265 -1.99521,4.39991 -4.5e-4,1.42725 -0.74825,5.97001 -1.66177,10.09501 -1.28324,5.79443 -1.61682,11.93448 -1.46687,27 0.14762,14.83163 -0.17276,20.88825 -1.33823,25.29879 -0.84277,3.18933 -1.53482,7.68933 -1.53789,10 -0.02,15.08719 -8.95205,21.74963 -10.50988,7.83938 C 116.30071,291.56746 111.23629,278 108.47432,278 c -1.4492,0 -1.66887,0.52575 -1.87238,4.48137 -0.24641,4.78946 -6.41754,1.47521 -14.10194,-7.57355 -2.354304,-2.77231 -6.526365,-6.02382 -10.140538,-7.90306 -9.743585,-5.06633 -9.809306,-5.34532 -9.013848,-38.26459 C 73.70764,213.75808 74.43785,198.35 74.968303,194.5 c 0.530453,-3.85 1.645305,-12.076 2.477449,-18.28001 3.684343,-27.46843 13.093908,-52.52727 23.985288,-63.8758 1.13793,-1.18569 2.52996,-2.76069 3.09341,-3.5 C 122.00455,85.908447 134.05396,77.743993 170,64.479192 236.13542,40.073916 282.43709,51.617549 330.29636,104.44325 c 1.96489,2.16878 4.15077,5.09378 4.85751,6.5 0.70674,1.40621 2.53624,4.43783 4.06556,6.73693 1.52931,2.29909 2.78057,4.47962 2.78057,4.84562 0,0.366 0.91334,1.94813 2.02965,3.51584 2.17998,3.06151 4.4791,17.47482 3.76423,23.5982 -0.21575,1.84809 -0.0748,3.36016 0.3133,3.36016 0.38807,0 0.47023,0.9 0.18257,2 -0.28766,1.1 -1.14553,2 -1.90638,2 -1.83004,0 -1.77705,4.09725 0.0848,6.55887 0.8075,1.06762 1.4825,2.72482 1.5,3.68266 0.0175,0.95784 0.9318,2.30358 2.0318,2.99054 1.1,0.68696 2,1.61547 2,2.06334 0,0.44788 0.96799,2.92713 2.15108,5.50945 2.20314,4.80876 2.5628,5.96576 5.34525,17.19514 0.88583,3.575 2.28122,8.975 3.10087,12 1.57335,5.80659 1.46432,23.84325 -0.22366,37 -1.53399,11.95652 -1.0187,16.89739 2.52198,24.18187 2.79484,5.75003 3.07989,7.00515 2.04393,9 -1.21864,2.34664 -6.80404,9.53986 -9.50393,12.23975 -0.80918,0.80918 -1.37096,1.83284 -1.24839,2.27481 0.12256,0.44196 -0.29077,2.37857 -0.91852,4.30357 -0.62775,1.925 -1.42556,12.5 -1.77291,23.5 -0.83644,26.48875 -1.00122,28.84642 -2.24817,32.16713 -0.58507,1.55808 -1.62296,5.75787 -2.30643,9.33287 -0.68347,3.575 -1.78724,7.625 -2.45281,9 -0.66558,1.375 -1.51746,4.50267 -1.89307,6.95039 -0.37562,2.44771 -1.07494,4.92271 -1.55404,5.5 -0.47911,0.57728 -0.80022,1.27461 -0.71358,1.54961 0.0866,0.275 -0.37028,2.3 -1.01538,4.5 -0.64511,2.2 -1.93951,6.7 -2.87645,10 -0.93694,3.3 -2.28611,6.675 -2.99817,7.5 -0.71205,0.825 -2.23575,3.69567 -3.38599,6.37926 -1.15024,2.68359 -3.20741,6.20561 -4.57148,7.82672 -1.36404,1.62111 -2.4801,3.70402 -2.4801,4.6287 0,1.59915 -4.60538,11.10919 -5.89124,12.16532 -0.33482,0.275 -1.12104,1.4 -1.74715,2.5 -0.62612,1.1 -1.84597,1.94044 -2.71078,1.86765 -0.86482,-0.0728 -1.50089,0.1522 -1.41349,0.5 0.33395,1.3289 -1.41776,5.13235 -2.36374,5.13235 -0.5454,0 -0.74503,0.39901 -0.44363,0.88669 0.70476,1.14032 -1.88391,3.32603 -2.82483,2.38511 -0.39097,-0.39096 -0.4436,-0.0144 -0.11696,0.83681 0.34167,0.89036 -0.83265,3.63798 -2.76503,6.46952 -1.84741,2.70703 -3.63349,5.66176 -3.96906,6.56608 -1.77382,4.78019 -12.80923,9.63372 -24.05952,10.58171 C 267.75528,475.47918 257,487.51913 257,496.77292 c 0,0.53802 -1.125,3.52204 -2.5,6.63116 -3.43975,7.77789 -3.22917,9.14727 2.63229,17.11733 9.11766,12.39765 12.21027,20.15518 11.45428,28.73202 -0.3513,3.98561 -0.61422,8.59657 -0.58427,10.24657 0.03,1.65 -0.40388,6.375 -0.96408,10.5 -0.56021,4.125 -1.46198,12.45 -2.00395,18.5 -2.37401,26.50131 -1.74491,23.85815 -7.14803,30.0326 -6.49833,7.42601 -7.51544,3.39105 15.11618,59.9674 6.1603,15.4 3.5305,36.31935 5.65295,35.76814 C 281.14406,713.62182 286.91128,714 143.45564,714 0,714 0,714 0,585.59819 Z M 250.46521,421 c 3.75975,0 4.03271,-4.5928 0.40048,-6.73841 C 249.28956,413.33055 248,412.19 248,411.72704 c 0,-0.46296 -2.38708,-0.71086 -5.30463,-0.55088 -5.30462,0.29086 -5.30462,0.29086 -4.68807,3.80735 0.34091,1.94433 1.14772,3.40472 1.80463,3.26649 0.65344,-0.1375 1.07557,0.27266 0.93807,0.91147 -0.27743,1.28892 3.99677,2.86113 6.08179,2.23711 C 247.56427,421.17936 249.19931,421 250.46521,421 Z m 45.54923,-58.02028 c 2.77301,-3.89433 5.64932,-21.85379 4.13708,-25.83153 -0.55373,-1.45651 -1.29585,-4.8119 -1.64916,-7.45644 -0.35331,-2.64454 -1.23614,-5.0361 -1.96186,-5.31458 -1.47662,-0.56664 -0.87973,-4.41947 0.87178,-5.62717 0.74692,-0.51501 0.6414,-1.03727 -0.33677,-1.66686 -1.00378,-0.64607 -1.35768,-2.5682 -1.19828,-6.50815 0.14035,-3.46922 -0.34123,-6.63192 -1.26889,-8.33315 -0.8223,-1.50801 -1.75847,-4.7815 -2.08038,-7.27441 -0.70485,-5.45845 -3.60278,-10.55712 -6.16191,-10.84136 C 271.33784,282.45686 268,284.72202 268,296.58982 c 0,3.31636 -0.47166,4.59224 -2,5.41018 -1.1,0.5887 -2,1.51754 -2,2.06409 0,1.05885 -4.93808,6.66034 -11.49956,13.04446 -2.19975,2.1403 -3.43725,3.89145 -2.75,3.89145 0.68726,0 1.24956,0.45 1.24956,1 0,0.55 -0.72578,1 -1.61285,1 -2.31937,0 -1.58266,13.0215 0.89139,15.75529 1.20049,1.32653 1.72146,3.60985 1.72146,7.54494 0,16.01989 11.63084,24.22278 21.02518,14.82844 3.08763,-3.08763 4.02859,-3.52007 6.97482,-3.20545 1.24632,0.13309 1.26575,0.002 0.1149,-0.77404 C 278.55414,356.0965 281.45992,354 284.47971,354 c 2.56437,0 6.79967,4.82365 6.21119,7.07401 -0.42266,1.61626 1.46699,4.92599 2.81243,4.92599 0.19827,0 1.32826,-1.35913 2.51111,-3.02028 z m -96.29338,-60.35965 c 2.60019,-0.48733 2.30299,-1.57112 -1.34847,-4.91743 -3.70507,-3.39544 -5.16778,-3.572 -9.18117,-1.10824 -2.18736,1.34278 3.23322,7.5641 6.05969,6.95484 1.78689,-0.38517 3.79837,-0.8033 4.46995,-0.92917 z m 11.86314,-18.07279 c -1.04507,-2.5012 -1.92596,-3.35336 -3.02892,-2.93012 -2.17928,0.83627 -1.93553,3.62972 0.59774,6.85024 2.96075,3.76399 4.56261,1.1811 2.43118,-3.92012 z M 91.240258,265.5235 C 91.787421,262.66121 91.348393,262 88.900721,262 c -2.261607,0 -3.614592,3.93297 -1.757733,5.10953 2.329972,1.47634 3.606308,0.98228 4.09727,-1.58603 z M 226.98469,182.17676 c -0.0202,-6.16969 -0.88437,-7.27855 -5.99215,-7.68883 -5.21991,-0.4193 -6.80208,-2.30484 -3.93531,-4.68991 1.82539,-1.51867 1.92832,-2.13795 0.9557,-5.75 -1.176,-4.36733 -3.81718,-5.51258 -4.72318,-2.04802 -0.33697,1.28859 -1.36402,2 -2.88733,2 -2.72499,0 -4.03016,3.36274 -2.96003,7.62648 0.525,2.09178 0.35001,2.50783 -0.85957,2.04368 -0.83532,-0.32055 -1.78474,-0.15247 -2.10981,0.37351 -0.32508,0.52598 0.11051,0.95633 0.96797,0.95633 0.85746,0 1.47794,0.3375 1.37885,0.75 -0.43497,1.8106 3.58057,8.22286 4.3869,7.00527 0.64422,-0.9728 1.10915,-0.89422 2.06611,0.34921 0.67916,0.88247 2.24609,1.92545 3.48206,2.31773 1.23597,0.39228 2.69467,1.54931 3.24156,2.57117 2.07644,3.87986 7.00654,-0.22369 6.98823,-5.81662 z m 4.64782,-1.37978 c -0.38073,-3.4778 -2.035,-4.79646 -2.96777,-2.36569 -0.33033,0.86081 0.15657,1.94622 1.12679,2.51185 0.93966,0.54783 1.34441,1.00973 0.89945,1.02645 -0.44496,0.0167 -0.5309,0.48041 -0.19098,1.03041 1.11007,1.79613 1.48951,1.05801 1.13251,-2.20302 z m -7.00767,-10.72028 c 2.29378,0.41973 6.62616,-0.15904 5.98558,-0.79961 -2.57333,-2.57334 -12.7167,0.12389 -10.98756,2.9217 0.31718,0.51321 1.373,0.20994 2.35126,-0.67537 0.97656,-0.88377 2.16938,-1.5348 2.65072,-1.44672 z M 205.80963,167.25 c -0.40593,-2.10784 -2.18068,-1.97493 -2.63295,0.19718 C 202.98803,168.35316 203.53927,169 204.5,169 c 1.02996,0 1.52043,-0.6554 1.30963,-1.75 z m -95.96344,181.5 c -1.7657,-1.43687 -5.60621,-6.86359 -7.95883,-11.246 -1.78597,-3.32685 -8.763153,-4.71121 -12.815106,-2.54267 -3.433359,1.83748 -12.362903,-7.82558 -13.938102,-15.08305 -2.101053,-9.68024 0.83292,-16.17286 7.691398,-17.02037 2.857873,-0.35316 6.300422,-1.36566 7.650108,-2.25 6.965056,-4.56368 12.091372,-0.40634 11.287612,9.15404 -0.36719,4.36771 -0.0383,6.57037 1.37717,9.22324 1.02276,1.91686 1.86207,4.16686 1.86514,5 0.015,4.06354 2.48983,9.43189 6.53057,14.16574 4.9432,5.79111 5.25338,6.90411 2.74161,9.83764 -2.01874,2.35771 -2.39131,2.42173 -4.43157,0.76143 z M 64.754011,318.35198 c -0.616427,-0.94863 -4.698538,-13.1413 -4.74111,-14.161 -0.0071,-0.16996 0.483776,-0.002 1.090826,0.37313 0.607049,0.37517 0.318936,-0.5156 -0.640253,-1.97951 C 55.084817,294.37573 63.41644,271 71.720918,271 c 5.440326,0 5.321954,14.63441 -0.169861,21 -2.271599,2.63302 -4.915628,12.26126 -5.492236,20 -0.307352,4.125 -0.894516,6.98339 -1.30481,6.35198 z"
     id="path3942"
     inkscape:connector-curvature="0"
     sodipodi:nodetypes="sscssccssscsssssccccssccccccccccsscscscsscccscsscccccccssscsscccccscsscccscsscscscscccccscccccscsccccccscsssscccccscsscsssscsssccscccsccssscsssccssccscsssscccccscscsccccscccscsssscccssssssscsccsccscssccccsscssscssscssscsssccscccsccscsscscsccscccsccsscssccccscccscscssscsscccccssscccssssc" />
  <rect
     style="fill:#000000;stroke-width:0.50604385"
     id="rect3944"
     width="169.42372"
     height="137.65678"
     x="0"
     y="576.3432" />
  <rect
     style="fill:#000000"
     id="rect8"
     width="12.568374"
     height="11.766137"
     x="82.095543"
     y="254.58583" />
  <rect
     style="fill:#000000"
     id="rect10"
     width="5.4363084"
     height="5.4363084"
     x="88.730003"
     y="263.49551" />
  <rect
     style="fill:#000000"
     id="rect12"
     width="4.5381355"
     height="4.5381355"
     x="85.326401"
     y="263.6846" />
  <rect
     style="fill:#000000"
     id="rect14"
     width="29.68697"
     height="48.034527"
     x="209.51059"
     y="150.13074" />
  <rect
     style="fill:#000000"
     id="rect16"
     width="12.668962"
     height="6.3344808"
     x="201.28522"
     y="164.0347" />
  <rect
     style="fill:#000000;stroke-width:1.02970076"
     id="rect20"
     width="14.134401"
     height="13.330773"
     x="207.19424"
     y="170.1801" />
  <rect
     style="fill:#000000"
     id="rect22"
     width="3.0254238"
     height="4.8952384"
     x="205.49245"
     y="172.8037" />
  <rect
     style="fill:#000000"
     id="rect24"
     width="1.5127119"
     height="2.4476192"
     x="204.33427"
     y="172.75642" />
</svg>
